# File created by Blade
# Date/Time:  Wed Jan 21 19:19:27 2015
#---------------------------------------------------------
:version 1.10
:name HOM
:units
  mass 1.0
  length 1.000000
  angle deg
:documentation
     Acclaim Skeleton File
:root
   axis xyz
   order TX TY TZ RX RY RZ
   position 0.000000 0.000000 0.000000
   orientation 0 0 0
:bonedata
   begin
      id 1
      name RightUpLeg_dum
      direction -1.000000 0.000000 0.000000
      length 3.693983
      axis 0.0 0.0 0.0 xyz
   end
   begin
      id 2
      name LeftUpLeg_dum
      direction 1.000000 0.000000 0.000000
      length 3.693983
      axis 0.0 0.0 0.0 xyz
   end
   begin
      id 3
      name Spine_dum
      direction 0.000000 1.000000 0.000000
      length 2.392956
      axis 0.0 0.0 0.0 xyz
   end
   begin
      id 4
      name RightUpLeg
      direction 0.000000 -1.000000 0.000000
      length 15.795667
      axis 0.0 0.0 0.0 xyz
      dof rx ry rz
   end
   begin
      id 5
      name RightLeg
      direction 0.000000 -1.000000 0.000000
      length 14.766989
      axis 0.0 0.0 0.0 xyz
      dof rx ry rz
   end
   begin
      id 6
      name RightFoot
      direction 0.000000 -0.258819 0.965926
      length 4.962790
      axis 15.0 0.0 0.0 xyz
      dof rx ry rz
   end
   begin
      id 7
      name RightToeBase
      direction 0.000000 0.000000 1.000000
      length 2.952750
      axis 0.0 0.0 0.0 xyz
      dof rx ry rz
   end
   begin
      id 8
      name LeftUpLeg
      direction 0.000000 -1.000000 0.000000
      length 15.795667
      axis 0.0 0.0 0.0 xyz
      dof rx ry rz
   end
   begin
      id 9
      name LeftLeg
      direction 0.000000 -1.000000 0.000000
      length 14.766989
      axis 0.0 0.0 0.0 xyz
      dof rx ry rz
   end
   begin
      id 10
      name LeftFoot
      direction 0.000000 -0.258819 0.965926
      length 4.962790
      axis 15.0 0.0 0.0 xyz
      dof rx ry rz
   end
   begin
      id 11
      name LeftToeBase
      direction 0.000000 0.000000 1.000000
      length 2.952750
      axis 0.0 0.0 0.0 xyz
      dof rx ry rz
   end
   begin
      id 12
      name Spine
      direction 0.000000 1.000000 0.000000
      length 0.000000
      axis 0.0 0.0 0.0 xyz
      dof rx ry rz
   end
   begin
      id 13
      name Spine_dum1
      direction 0.000000 1.000000 0.000000
      length 13.207411
      axis 0.0 0.0 0.0 xyz
   end
   begin
      id 14
      name Spine_dum2
      direction 0.000000 1.000000 0.000000
      length 13.207411
      axis 0.0 0.0 0.0 xyz
   end
   begin
      id 15
      name Spine_dum3
      direction 0.000000 1.000000 0.000000
      length 19.250100
      axis 0.0 0.0 0.0 xyz
   end
   begin
      id 16
      name RightShoulder
      direction -1.000000 0.000000 0.000000
      length 8.140465
      axis 0.0 0.0 90.0 xyz
      dof rx ry rz
   end
   begin
      id 17
      name RightArm
      direction -1.000000 0.000000 0.000000
      length 10.649840
      axis 0.0 0.0 90.0 xyz
      dof rx ry rz
   end
   begin
      id 18
      name RightForeArm
      direction -1.000000 0.000000 0.000000
      length 8.304624
      axis 0.0 0.0 90.0 xyz
      dof ry rz rx
   end
   begin
      id 19
      name RightHand
      direction -1.000000 0.000000 0.000000
      length 0.000000
      axis 0.0 0.0 90.0 xyz
      dof rx ry rz
   end
   begin
      id 20
      name RightHand_dum1
      direction -1.000000 0.000000 0.000000
      length 3.937000
      axis 0.0 0.0 90.0 xyz
   end
   begin
      id 21
      name RightHand_dum2
      direction 0.000000 0.000000 0.000000
      length 0.000000
      axis 0.0 0.0 90.0 xyz
   end
   begin
      id 22
      name RightHandThumb1
      direction 0.000000 0.000000 1.000000
      length 3.937000
      axis 0.0 0.0 90.0 xyz
      dof rx rz ry
   end
   begin
      id 23
      name LeftShoulder
      direction 1.000000 0.000000 0.000000
      length 8.140465
      axis 0.0 0.0 -90.0 xyz
      dof rx ry rz
   end
   begin
      id 24
      name LeftArm
      direction 1.000000 0.000000 0.000000
      length 10.649840
      axis 0.0 0.0 -90.0 xyz
      dof rx ry rz
   end
   begin
      id 25
      name LeftForeArm
      direction 1.000000 0.000000 0.000000
      length 8.304624
      axis 0.0 0.0 -90.0 xyz
      dof ry rz rx
   end
   begin
      id 26
      name LeftHand
      direction 1.000000 0.000000 0.000000
      length 0.000000
      axis 0.0 0.0 -90.0 xyz
      dof rx ry rz
   end
   begin
      id 27
      name LeftHand_dum1
      direction 1.000000 0.000000 0.000000
      length 3.937000
      axis 0.0 0.0 -90.0 xyz
   end
   begin
      id 28
      name LeftHand_dum2
      direction 0.000000 0.000000 0.000000
      length 0.000000
      axis 0.0 0.0 -90.0 xyz
   end
   begin
      id 29
      name LeftHandThumb1
      direction 0.000000 0.000000 1.000000
      length 3.937000
      axis 0.0 0.0 -90.0 xyz
      dof rx rz ry
   end
   begin
      id 30
      name Head
      direction 0.000000 1.000000 0.000000
      length 4.527550
      axis 0.0 0.0 0.0 xyz
      dof rx ry rz
   end
:hierarchy
   begin
      root RightUpLeg_dum LeftUpLeg_dum Spine_dum
      RightUpLeg_dum RightUpLeg
      LeftUpLeg_dum LeftUpLeg
      Spine_dum Spine
      RightUpLeg RightLeg
      RightLeg RightFoot
      RightFoot RightToeBase
      LeftUpLeg LeftLeg
      LeftLeg LeftFoot
      LeftFoot LeftToeBase
      Spine Spine_dum1 Spine_dum2 Spine_dum3
      Spine_dum1 RightShoulder
      Spine_dum2 LeftShoulder
      Spine_dum3 Head
      RightShoulder RightArm
      RightArm RightForeArm
      RightForeArm RightHand
      RightHand RightHand_dum1 RightHand_dum2
      RightHand_dum2 RightHandThumb1
      LeftShoulder LeftArm
      LeftArm LeftForeArm
      LeftForeArm LeftHand
      LeftHand LeftHand_dum1 LeftHand_dum2
      LeftHand_dum2 LeftHandThumb1
   end

# File created by Blade
# Date/Time:  Wed Jan 21 19:19:18 2015
# Frame Rate: 120.000 fps
#------------------------------------------------------
:FULLY-SPECIFIED
:DEGREES
408
root -0.118294 16.453289 -3.031679 54.372695 -35.440570 19.581038
RightUpLeg -175.293338 -31.956165 35.567709
RightLeg 92.715227 -0.000000 -0.000000
RightFoot -1.558593 24.292445 18.550322
RightToeBase 23.005785 -0.000000 -0.000000
LeftUpLeg -33.732308 38.037516 10.521670
LeftLeg 11.313546 -0.000000 -0.000000
LeftFoot -26.151212 4.018649 -22.616861
LeftToeBase 5.173817 -0.000000 -0.000000
Spine -30.317561 15.803565 19.670406
RightShoulder -7.858982 21.578081 -30.260977
RightArm 1.297642 -50.736726 56.938893
RightForeArm 6.716224 0.000000 26.747969
RightHand 19.075979 -0.000000 -8.461130
RightHandThumb1 -24.326973 -0.000000 -32.862282
LeftShoulder -21.226790 -20.918680 67.376806
LeftArm 70.503104 -43.128068 -21.194672
LeftForeArm 14.848653 -0.000000 23.642647
LeftHand -18.299653 0.000000 16.613537
LeftHandThumb1 -26.253704 0.000000 33.147579
Head -34.705012 -8.410396 43.591067
409
root -0.124622 16.455753 -3.046326 54.466566 -35.469555 19.531102
RightUpLeg -175.384575 -31.745864 35.753786
RightLeg 92.666298 -0.000000 -0.000000
RightFoot -1.341158 24.512859 18.506976
RightToeBase 22.972764 -0.000000 -0.000000
LeftUpLeg -33.839682 38.397702 10.305823
LeftLeg 11.111087 -0.000000 -0.000000
LeftFoot -25.870498 3.695337 -22.623344
LeftToeBase 5.113242 -0.000000 -0.000000
Spine -30.331534 15.998676 19.482529
RightShoulder -7.760147 21.424612 -30.711157
RightArm 0.789311 -50.726090 56.734003
RightForeArm 6.672586 -0.000000 28.429405
RightHand 17.911870 -0.000000 -7.054069
RightHandThumb1 -24.326973 -0.000000 -32.862282
LeftShoulder -21.312141 -20.880657 67.130405
LeftArm 69.920067 -43.108359 -20.688638
LeftForeArm 14.764651 -0.000000 23.511808
LeftHand -18.369533 -0.000000 16.820181
LeftHandThumb1 -26.253704 0.000000 33.147579
Head -35.213177 -8.363593 43.183133
410
root -0.133788 16.455142 -3.061831 54.539445 -35.495327 19.503044
RightUpLeg -175.483754 -31.570279 35.880888
RightLeg 92.666883 -0.000000 -0.000000
RightFoot -1.114071 24.645756 18.531974
RightToeBase 22.954019 -0.000000 -0.000000
LeftUpLeg -33.958065 38.716630 10.098575
LeftLeg 10.952211 -0.000000 -0.000000
LeftFoot -25.650949 3.463258 -22.555224
LeftToeBase 5.088551 -0.000000 -0.000000
Spine -30.355501 16.233099 19.250006
RightShoulder -7.591684 21.214846 -31.099163
RightArm 0.092085 -50.435469 56.695747
RightForeArm 6.235374 -0.000000 29.909433
RightHand 17.104178 -0.000000 -5.588332
RightHandThumb1 -24.326973 -0.000000 -32.862282
LeftShoulder -21.434383 -20.874223 66.913999
LeftArm 69.474207 -43.053797 -20.332424
LeftForeArm 14.765348 -0.000000 23.313923
LeftHand -18.513349 -0.000000 17.004636
LeftHandThumb1 -26.253704 0.000000 33.147579
Head -35.758612 -8.389004 42.823112
411
root -0.146051 16.449430 -3.074743 54.590197 -35.456835 19.452654
RightUpLeg -175.554448 -31.469424 36.025594
RightLeg 92.698193 -0.000000 -0.000000
RightFoot -0.931392 24.774240 18.596514
RightToeBase 23.097145 -0.000000 -0.000000
LeftUpLeg -34.025435 38.985011 10.012438
LeftLeg 10.814192 -0.000000 -0.000000
LeftFoot -25.442257 3.221395 -22.514295
LeftToeBase 5.020113 -0.000000 -0.000000
Spine -30.365763 16.514117 19.075718
RightShoulder -7.498912 20.898985 -31.573259
RightArm -0.480013 -50.209597 56.827828
RightForeArm 6.064431 -0.000000 30.880983
RightHand 17.098506 0.000000 -5.483559
RightHandThumb1 -24.326973 -0.000000 -32.862282
LeftShoulder -21.577076 -20.871674 66.693151
LeftArm 69.159565 -43.022058 -20.191699
LeftForeArm 14.602192 -0.000000 23.123344
LeftHand -18.563492 -0.000000 16.995166
LeftHandThumb1 -26.253704 0.000000 33.147579
Head -36.347323 -8.384911 42.429427
